<?xml version="1.0" encoding="UTF-8" standalone="no"?>
<svg width="20px" height="20px" viewBox="0 0 20 20" version="1.1" xmlns="http://www.w3.org/2000/svg" xmlns:xlink="http://www.w3.org/1999/xlink">
    <!-- Generator: Sketch 41.2 (35397) - http://www.bohemiancoding.com/sketch -->
    <title>ic_person_outline_white_24px</title>
    <desc>Created with Sketch.</desc>
    <defs></defs>
    <g id="Page-1" stroke="none" stroke-width="1" fill="none" fill-rule="evenodd">
        <g id="Group-4" transform="translate(-29.000000, -1209.000000)">
            <g id="2" transform="translate(0.000000, 781.000000)">
                <g id="Group" transform="translate(24.000000, 423.000000)">
                    <g id="ic_person_outline_white_24px">
                        <path d="M15,7.375 C16.45,7.375 17.625,8.55 17.625,10 C17.625,11.45 16.45,12.625 15,12.625 C13.55,12.625 12.375,11.45 12.375,10 C12.375,8.55 13.55,7.375 15,7.375 L15,7.375 Z M15,18.625 C18.7125,18.625 22.625,20.45 22.625,21.25 L22.625,22.625 L7.375,22.625 L7.375,21.25 C7.375,20.45 11.2875,18.625 15,18.625 L15,18.625 Z M15,5 C12.2375,5 10,7.2375 10,10 C10,12.7625 12.2375,15 15,15 C17.7625,15 20,12.7625 20,10 C20,7.2375 17.7625,5 15,5 Z M15,16.25 C11.6625,16.25 5,17.925 5,21.25 L5,25 L25,25 L25,21.25 C25,17.925 18.3375,16.25 15,16.25 Z" id="Shape" fill="#FFFFFF"></path>
                        <path d="M15,7.375 C16.45,7.375 17.625,8.55 17.625,10 C17.625,11.45 16.45,12.625 15,12.625 C13.55,12.625 12.375,11.45 12.375,10 C12.375,8.55 13.55,7.375 15,7.375 L15,7.375 Z M15,18.625 C18.7125,18.625 22.625,20.45 22.625,21.25 L22.625,22.625 L7.375,22.625 L7.375,21.25 C7.375,20.45 11.2875,18.625 15,18.625 L15,18.625 Z M15,5 C12.2375,5 10,7.2375 10,10 C10,12.7625 12.2375,15 15,15 C17.7625,15 20,12.7625 20,10 C20,7.2375 17.7625,5 15,5 Z M15,16.25 C11.6625,16.25 5,17.925 5,21.25 L5,25 L25,25 L25,21.25 C25,17.925 18.3375,16.25 15,16.25 Z" id="Shape-Copy" fill="#FFFFFF"></path>
                        <polygon id="Shape" points="0 0 30 0 30 30 0 30"></polygon>
                    </g>
                </g>
            </g>
        </g>
    </g>
</svg>