<?xml version="1.0" encoding="UTF-8" standalone="no"?>
<svg width="25px" height="24px" viewBox="0 0 25 24" version="1.1" xmlns="http://www.w3.org/2000/svg" xmlns:xlink="http://www.w3.org/1999/xlink">
    <!-- Generator: Sketch 40.2 (33826) - http://www.bohemiancoding.com/sketch -->
    <title>icon overview</title>
    <desc>Created with Sketch.</desc>
    <defs></defs>
    <g id="Page-3" stroke="none" stroke-width="1" fill="none" fill-rule="evenodd">
        <g id="Group-14" transform="translate(0.000000, 1.000000)" stroke-width="2" stroke="#FFFFFF">
            <g id="icon-overview" transform="translate(1.000000, 0.000000)">
                <g id="Group-6">
                    <path d="M3,3.021 L3,19 M20,19 L20,3.021 M2.979,3 L20,3 M3,19 L20.021,19" id="Stroke-3"></path>
                    <path d="M0,0 L23,0 L23,22 L0,22 L0,0 Z M0,0 L3,3 L0,0 Z M20,3 L23,0 L20,3 Z M20,19 L23,22 L20,19 Z M0,22 L3,19 L0,22 Z M3,7 L20,7 L3,7 Z M3,11.031 L20,11.031 L3,11.031 Z M3,15 L20.021,15 L3,15 Z" id="Stroke-5"></path>
                </g>
            </g>
        </g>
    </g>
</svg>
