<?xml version="1.0" encoding="UTF-8" standalone="no"?>
<svg width="25px" height="25px" viewBox="0 0 25 25" version="1.1" xmlns="http://www.w3.org/2000/svg" xmlns:xlink="http://www.w3.org/1999/xlink">
    <!-- Generator: Sketch 40.2 (33826) - http://www.bohemiancoding.com/sketch -->
    <title>icon cluster</title>
    <desc>Created with Sketch.</desc>
    <defs></defs>
    <g id="Page-3" stroke="none" stroke-width="1" fill="none" fill-rule="evenodd">
        <g id="Group-14" transform="translate(0.000000, -306.000000)" stroke-width="2" stroke="#FFFFFF">
            <g id="icon-cluster" transform="translate(1.000000, 307.000000)">
                <g id="Group-12">
                    <path d="M15.82743,7.171573 C17.38952,8.73367 17.38952,11.26633 15.82743,12.82843 C14.26533,14.39052 11.73267,14.39052 10.17057,12.82843 C8.608475,11.26633 8.608475,8.73367 10.17057,7.171573 C11.73267,5.609476 14.26533,5.609476 15.82743,7.171573" id="Stroke-3"></path>
                    <path d="M2.56066,3.93934 C3.146447,4.525126 3.146447,5.474874 2.56066,6.06066 C1.974874,6.646447 1.025126,6.646447 0.4393398,6.06066 C-0.1464466,5.474874 -0.1464466,4.525126 0.4393398,3.93934 C1.025126,3.353553 1.974874,3.353553 2.56066,3.93934" id="Stroke-5"></path>
                    <path d="M22.56066,0.4393398 C23.14645,1.025126 23.14645,1.974874 22.56066,2.56066 C21.97487,3.146447 21.02513,3.146447 20.43934,2.56066 C19.85355,1.974874 19.85355,1.025126 20.43934,0.4393398 C21.02513,-0.1464466 21.97487,-0.1464466 22.56066,0.4393398" id="Stroke-7"></path>
                    <path d="M2.56066,20.43934 C3.146447,21.02513 3.146447,21.97487 2.56066,22.56066 C1.974874,23.14645 1.025126,23.14645 0.4393398,22.56066 C-0.1464466,21.97487 -0.1464466,21.02513 0.4393398,20.43934 C1.025126,19.85355 1.974874,19.85355 2.56066,20.43934" id="Stroke-9"></path>
                    <path d="M14.05966,20.43934 C14.64545,21.02513 14.64545,21.97487 14.05966,22.56066 C13.47387,23.14645 12.52413,23.14645 11.93834,22.56066 C11.35255,21.97487 11.35255,21.02513 11.93834,20.43934 C12.52413,19.85355 13.47387,19.85355 14.05966,20.43934" id="Stroke-11"></path>
                    <path d="M2.56,20.439 L10.18,12.838 M15.833,7.177 L20.438,2.562 M2.85,5.65 L9.322,8.425 M20.062,13.529 L16.444,12.034 M12.999,20 L12.999,14" id="Stroke-13"></path>
                    <path d="M22.56066,12.93934 C23.14645,13.52513 23.14645,14.47487 22.56066,15.06066 C21.97487,15.64645 21.02513,15.64645 20.43934,15.06066 C19.85355,14.47487 19.85355,13.52513 20.43934,12.93934 C21.02513,12.35355 21.97487,12.35355 22.56066,12.93934" id="Stroke-15"></path>
                </g>
            </g>
        </g>
    </g>
</svg>