<?xml version="1.0" encoding="UTF-8"?>
<svg width="26px" height="23px" viewBox="0 0 26 23" version="1.1" xmlns="http://www.w3.org/2000/svg" xmlns:xlink="http://www.w3.org/1999/xlink">
    <!-- Generator: Sketch 49.2 (51160) - http://www.bohemiancoding.com/sketch -->
    <title>Artboard</title>
    <desc>Created with Sketch.</desc>
    <defs></defs>
    <g id="Artboard" stroke="none" stroke-width="1" fill="none" fill-rule="evenodd">
        <g id="icon-view" fill="#FFFFFF" fill-rule="nonzero">
            <path d="M18.00823,0.049829679 C18.1318533,0.0488052258 18.3714679,0.0490195352 19.6060039,0.0507522563 C19.8206944,0.0510515392 19.8206944,0.0510515392 20.0382497,0.0513362005 C21.1852827,0.0527986666 21.8309603,0.0525847802 22.0162844,0.0499002446 C22.2872978,0.045915606 22.2872978,0.045915606 22.5626762,0.0416632739 C22.8210813,0.0375941972 22.8210813,0.0375941972 23.0760511,0.0334477728 C23.5205486,0.0261692237 23.973102,0.0183696271 24.4098149,0.010569991 C24.8703574,0.00225043241 24.8703574,0.00225043241 24.981295,0.000174953116 C25.5408013,-0.0102924207 26,0.440395778 26,0.999999837 L26,21.9999964 C26,22.5522811 25.5522847,22.9999962 25,22.9999962 L1,22.9999962 C0.44771525,22.9999962 0,22.5522811 0,21.9999964 L0,0.999999837 C0,0.446413107 0.449749257,-0.0018395511 1.003333,5.55446442e-06 C1.26114117,0.000864834176 1.26114117,0.000864834176 2.42381381,0.00473163966 C3.97572645,0.0098873843 3.97572645,0.0098873843 6.17973449,0.0171913595 C10.0721262,0.0300807238 13.9846925,0.0429700866 17.664663,0.055000149 C17.783911,0.055389929 17.8466829,0.0555951081 17.9064799,0.055790518 C17.9399228,0.0521291719 17.9738668,0.0501144435 18.00823,0.049829679 Z M18.1617726,2.05663529 C17.9099166,2.05581249 17.9099166,2.05581249 17.6581249,2.05498947 C13.978123,2.0429593 10.0655296,2.03006985 6.17311168,2.0171804 C3.9690901,2.00987638 3.9690901,2.00987638 2.41716638,2.00472059 C2.25738084,2.00418918 2.11955436,2.0037308 1.99999996,2.00333318 L1.99999996,21 L24,21 L24,2.0181086 C23.7040803,2.02326009 23.4046873,2.02833455 23.1087963,2.0331797 C22.85312,2.03733762 22.85312,2.03733762 22.5938708,2.04141999 C22.3175012,2.04568764 22.3175012,2.04568764 22.0452526,2.04969045 C21.8433873,2.0526146 21.2053914,2.05282594 20.0356997,2.05133458 C19.8179683,2.05104969 19.8179683,2.05104969 19.6031968,2.05075029 C18.8858338,2.04974345 18.5034203,2.04925337 18.2875255,2.04921825 C18.246326,2.05424978 18.2043558,2.05677439 18.1617726,2.05663529 Z M14.2928932,16.7071068 C13.9023689,16.3165825 13.9023689,15.6834175 14.2928932,15.2928932 C14.6834175,14.9023689 15.3165825,14.9023689 15.7071068,15.2928932 L19.2071068,18.7928932 C19.5976311,19.1834175 19.5976311,19.8165825 19.2071068,20.2071068 C18.8165825,20.5976311 18.1834175,20.5976311 17.7928932,20.2071068 L14.2928932,16.7071068 Z M12.305,18.111 C9.65127178,18.111 7.5,15.9597282 7.5,13.306 C7.5,10.6522718 9.65127178,8.501 12.305,8.501 C14.9587282,8.501 17.11,10.6522718 17.11,13.306 C17.11,15.9597282 14.9587282,18.111 12.305,18.111 Z M12.305,16.111 C13.8541587,16.111 15.11,14.8551587 15.11,13.306 C15.11,11.7568413 13.8541587,10.501 12.305,10.501 C10.7558413,10.501 9.5,11.7568413 9.5,13.306 C9.5,14.8551587 10.7558413,16.111 12.305,16.111 Z M2,7 L2,5 L24,5 L24,7 L2,7 Z" id="Combined-Shape"></path>
        </g>
    </g>
</svg>