<?xml version="1.0" encoding="UTF-8" standalone="no"?>
<svg width="17px" height="16px" viewBox="0 0 17 16" version="1.1" xmlns="http://www.w3.org/2000/svg" xmlns:xlink="http://www.w3.org/1999/xlink">
    <!-- Generator: Sketch 40.3 (33839) - http://www.bohemiancoding.com/sketch -->
    <title>Fill 1</title>
    <desc>Created with Sketch.</desc>
    <defs></defs>
    <g id="Community" stroke="none" stroke-width="1" fill="none" fill-rule="evenodd" opacity="0.300000012">
        <g id="CRA-UI-Framework" transform="translate(-285.000000, -48.000000)" fill="#333333">
            <g id="Side-Navigation" transform="translate(80.000000, 40.000000)">
                <g id="Search">
                    <path d="M213.153191,8 C208.779101,8 205.221277,11.5883636 205.221277,16 C205.221277,20.4116364 208.779101,23.9999994 213.153191,23.9999994 C217.52584,23.9999994 221.085106,20.4116364 221.085106,16 C221.085106,11.5883636 217.52584,8 213.153191,8 L213.153191,8 Z M216.863379,18.4936611 C217.204405,18.8376144 217.204405,19.394995 216.863379,19.742476 C216.691992,19.9153346 216.468139,20 216.244286,20 C216.020433,20 215.79658,19.9135707 215.625193,19.742476 L213.154066,17.2466101 L210.68119,19.742476 C210.509803,19.9153346 210.28595,20 210.062097,20 C209.838244,20 209.614391,19.9135707 209.443004,19.742476 C209.101978,19.3967589 209.101978,18.8376144 209.443004,18.4936611 L211.915879,15.999559 L209.443004,13.505457 C209.101978,13.1597398 209.101978,12.6023592 209.443004,12.256642 C209.78403,11.9144527 210.338415,11.9144527 210.679441,12.256642 L213.152317,14.7507441 L215.625193,12.256642 C215.966219,11.9144527 216.520605,11.9144527 216.861631,12.256642 C217.202657,12.6023592 217.202657,13.1597398 216.861631,13.505457 L214.388755,15.999559 L216.863379,18.4936611 L216.863379,18.4936611 Z" id="Fill-1"></path>
                </g>
            </g>
        </g>
    </g>
</svg>