<?xml version="1.0" encoding="UTF-8" standalone="no"?>
<svg width="109px" height="18px" viewBox="0 0 109 18" version="1.1" xmlns="http://www.w3.org/2000/svg" xmlns:xlink="http://www.w3.org/1999/xlink">
    <!-- Generator: Sketch 40.3 (33839) - http://www.bohemiancoding.com/sketch -->
    <title>CRA_logo_white_CMYK</title>
    <desc>Created with Sketch.</desc>
    <defs></defs>
    <g id="Symbols" stroke="none" stroke-width="1" fill="none" fill-rule="evenodd">
        <g id="Top-Community" transform="translate(-20.000000, -11.000000)">
            <g id="Group-2">
                <g id="CRA_logo_white_CMYK" transform="translate(20.000000, 11.000000)">
                    <polygon id="Fill-1" fill="#55D4F6" points="11.9997 1.77635684e-15 11.9997 6 5.9997 6 -0.0003 6 -0.0003 12 5.9997 12 5.9997 18 11.9997 18 11.9997 12 17.9987 12 23.9997 12 23.9997 6 17.9987 6 17.9987 1.77635684e-15"></polygon>
                    <g id="Group-16" transform="translate(33.000000, 4.000000)" fill="#FFFFFF">
                        <path d="M6.9116,7.063 C6.7026,7.599 6.4646,8.061 6.3456,8.21 C5.9876,8.716 5.2876,9.476 4.3786,9.476 L2.4286,9.476 C2.0706,9.476 1.6976,9.342 1.4446,9.193 C1.1316,8.999 0.5656,8.403 0.3576,8.121 C0.1786,7.837 0.1046,7.495 0.1046,7.197 L0.1046,2.684 C0.1046,2.357 0.1636,2.044 0.3576,1.761 C0.5366,1.522 1.1166,0.897 1.4596,0.688 C1.6976,0.554 2.0706,0.405 2.4286,0.405 L4.3786,0.405 C5.2876,0.405 5.9736,1.18 6.3306,1.657 C6.4496,1.806 6.7776,2.431 6.9116,2.804 L5.1536,3.295 C5.0936,3.146 5.0786,3.116 5.0646,3.086 C4.8856,2.714 4.7366,2.431 4.3196,2.148 L2.5026,2.148 C2.3536,2.252 2.0556,2.535 1.9216,2.744 L1.9216,7.183 C1.9216,7.197 2.1446,7.524 2.5026,7.733 L4.3196,7.733 C4.4836,7.629 4.7816,7.301 4.9156,7.078 C4.9156,7.078 5.0196,6.899 5.1536,6.602 L6.9116,7.063 L6.9116,7.063 Z" id="Fill-2"></path>
                        <path d="M16.0737,2.5654 C15.9997,2.4454 15.8207,2.2674 15.6867,2.2084 L13.1547,2.2084 L13.1547,4.2484 L15.6867,4.2484 C15.7467,4.2484 15.9847,4.0394 16.0737,3.8904 L16.0737,2.5654 Z M16.4617,9.4014 L14.2417,5.9914 L13.1547,5.9914 L13.1547,9.4014 L11.3377,9.4014 L11.3377,0.4654 L15.6867,0.4654 C16.0737,0.4654 16.5207,0.5844 16.8187,0.8074 C17.0117,0.9414 17.4597,1.4184 17.6087,1.6274 C17.7867,1.9094 17.8907,2.2814 17.8907,2.6104 L17.8907,3.8764 C17.8907,4.2334 17.8017,4.5604 17.6087,4.8434 C17.4887,5.0524 17.0417,5.5134 16.8187,5.6484 C16.5347,5.8124 16.4017,5.8574 16.3117,5.9014 C16.2967,5.9164 16.2827,5.9014 16.2677,5.9164 C16.9967,7.0034 17.8467,8.2994 18.5757,9.4014 L16.4617,9.4014 Z" id="Fill-4"></path>
                        <path d="M25.9663,3.0713 C25.6383,4.0243 25.2963,4.9933 24.9683,5.9463 L26.9783,5.9463 L25.9663,3.0713 Z M28.1253,9.4013 L27.5303,7.6893 L24.4173,7.6893 C24.2233,8.2393 24.0003,8.8503 23.8063,9.4013 L21.8703,9.4013 L24.9683,0.4653 L26.9783,0.4653 L30.0623,9.4013 L28.1253,9.4013 Z" id="Fill-6"></path>
                        <polygon id="Fill-8" points="37.3623 2.208 37.3623 9.401 35.5303 9.401 35.5303 2.208 33.1173 2.208 33.1173 0.465 39.7603 0.465 39.7603 2.208"></polygon>
                        <polygon id="Fill-10" points="44.0967 9.4014 44.0967 0.4654 49.9657 0.4654 49.9657 2.2084 45.9137 2.2084 45.9137 4.0394 49.8307 4.0394 49.8307 5.7824 45.9137 5.7824 45.9137 7.6584 49.9657 7.6584 49.9657 9.4014"></polygon>
                        <polygon id="Fill-12" points="54.942 9.401 57.043 9.401 57.043 7.286 54.942 7.286"></polygon>
                        <polygon id="Fill-14" points="61.915 9.401 63.747 9.401 63.747 0.465 61.915 0.465"></polygon>
                        <path d="M73.7417,2.6992 C73.6377,2.5202 73.3547,2.2382 73.2057,2.1482 L70.9417,2.1482 C70.8227,2.2382 70.5697,2.4612 70.3907,2.7142 L70.3907,7.1822 C70.5547,7.4052 70.8077,7.6582 70.9277,7.7332 L73.1907,7.7332 C73.3107,7.6432 73.5787,7.3902 73.7417,7.1822 L73.7417,2.6992 Z M75.3057,8.1052 C75.1127,8.3582 74.5467,8.9992 74.2197,9.1932 C73.9657,9.3422 73.5937,9.4762 73.2357,9.4762 L70.8967,9.4762 C70.5247,9.4762 70.1677,9.3422 69.9147,9.1932 C69.5867,8.9992 69.0057,8.3582 68.8267,8.1052 C68.6337,7.8232 68.5737,7.4942 68.5737,7.1822 L68.5737,2.6992 C68.5737,2.3712 68.6337,2.0442 68.8267,1.7612 C69.0057,1.5222 69.5867,0.8822 69.9147,0.6882 C70.1677,0.5392 70.5247,0.4052 70.8967,0.4052 L73.2357,0.4052 C73.5937,0.4052 73.9657,0.5392 74.2197,0.6882 C74.5467,0.8822 75.1127,1.5222 75.3057,1.7612 C75.4997,2.0442 75.5597,2.3712 75.5597,2.6992 L75.5597,7.1822 C75.5597,7.4942 75.4997,7.8232 75.3057,8.1052 L75.3057,8.1052 Z" id="Fill-15"></path>
                    </g>
                </g>
            </g>
        </g>
    </g>
</svg>