<?xml version="1.0" encoding="UTF-8" standalone="no"?>
<svg width="48px" height="47px" viewBox="0 0 48 47" version="1.1" xmlns="http://www.w3.org/2000/svg" xmlns:xlink="http://www.w3.org/1999/xlink">
    <!-- Generator: Sketch 41.2 (35397) - http://www.bohemiancoding.com/sketch -->
    <title>Page 1</title>
    <desc>Created with Sketch.</desc>
    <defs></defs>
    <g id="Support" stroke="none" stroke-width="1" fill="none" fill-rule="evenodd">
        <g id="Support-Copy-3" transform="translate(-289.000000, -297.000000)" fill="#5bd5ff">
            <path d="M312.998,297.132001 C299.765998,297.132001 289,307.898001 289,321.132001 C289,331.486001 295.596,340.640001 305.552,343.944001 L306.124,343.996001 C307.37,343.996001 308.242,343.126001 308.242,341.876001 L308.244,341.304001 C308.246,340.552001 308.252,339.328001 308.242,337.876001 C308.24,337.576001 308.104,337.290001 307.866,337.100001 C307.63,336.912001 307.322,336.838001 307.028,336.904001 C306.272,337.068001 305.56,337.150001 304.906,337.150001 C301.352,337.150001 300.508,334.660001 300.45,334.486001 C300.066,333.512001 299.622,332.764001 299.198,332.200001 C299.574,332.594001 299.774,332.944001 299.784,332.960001 C301.238,335.448001 303.264,335.970001 304.71,335.970001 C305.952,335.970001 307.048,335.594001 307.748,335.280001 C308.06,335.140001 308.28,334.848001 308.328,334.508001 C308.48,333.436001 308.89,332.540001 309.456,332.052001 C309.756,331.792001 309.874,331.380001 309.756,331.002001 C309.638,330.624001 309.308,330.348001 308.914,330.302001 C304.172,329.760001 299.324,328.102001 299.324,319.924001 C299.324,317.804001 300.034,315.956001 301.43,314.426001 C301.69,314.140001 301.764,313.730001 301.618,313.374001 C301.41,312.868001 300.838,311.102001 301.636,308.626001 C302.36,308.678001 303.994,309.036001 306.68,310.858001 C306.922,311.022001 307.226,311.072001 307.508,310.992001 C309.21,310.520001 311.11,310.264001 312.994,310.254001 C314.914,310.264001 316.764,310.512001 318.492,310.992001 C318.772,311.072001 319.078,311.022001 319.32,310.858001 C322.004,309.038001 323.632,308.680001 324.36,308.626001 C325.18,311.178001 324.53,313.014001 324.382,313.378001 C324.236,313.738001 324.31,314.148001 324.57,314.432001 C325.966,315.956001 326.674,317.804001 326.674,319.928001 C326.674,328.116001 321.814,329.756001 317.062,330.282001 C316.668,330.326001 316.336,330.598001 316.216,330.980001 C316.098,331.360001 316.216,331.772001 316.516,332.032001 C316.886,332.352001 317.744,333.332001 317.744,335.516001 L317.744,341.884001 C317.744,343.130001 318.614,344 319.86,344 C320.044,344 320.246,343.982 320.6,343.906 C330.41,340.632001 337,331.482001 337,321.132001 C337,307.898001 326.232,297.132001 312.998,297.132001 Z M320.098,341.974001 L319.862,342.000001 L319.746,341.884001 L319.746,335.516001 C319.746,333.981999 319.41,332.848001 318.986,332.026001 C323.556,331.206001 328.674,328.740001 328.674,319.928001 C328.674,317.496001 327.924,315.350001 326.442,313.538001 C326.772,312.400001 327.132,310.132001 326.01,307.302001 C325.9,307.024001 325.67,306.810001 325.386,306.718001 C325.292,306.688001 325.022,306.618001 324.572,306.618001 C323.452,306.618001 321.52,307.030001 318.586,308.948001 C316.816,308.496001 314.942,308.264001 312.998,308.254001 C311.06,308.264001 309.188,308.498001 307.419998,308.948001 C304.485998,307.030001 302.551998,306.618001 301.431998,306.618001 C300.977998,306.618001 300.707998,306.688001 300.613998,306.718001 C300.327998,306.810001 300.097998,307.024001 299.987998,307.304001 C298.869998,310.132001 299.227998,312.400001 299.559998,313.538001 C298.077998,315.354001 297.325998,317.500001 297.325998,319.928001 C297.325998,328.740001 302.445998,331.214001 307.009998,332.048001 C306.767998,332.528001 306.579998,333.068001 306.453998,333.650001 C305.995998,333.814001 305.373998,333.974001 304.711998,333.974001 C303.351998,333.974001 302.305998,333.314001 301.523998,331.978001 C301.463998,331.868001 300.011998,329.290001 297.114,329.094001 C296.05,329.094001 295.348,329.468001 295.138,330.152001 C294.806,331.222001 295.968,332.018001 296.528,332.390001 C296.576,332.414001 297.728,333.028001 298.562,335.142001 C298.61,335.306001 299.823998,339.154001 304.905998,339.154001 C305.337998,339.154001 305.783998,339.126001 306.245998,339.068001 L306.243998,341.298001 L306.123998,341.998001 L306.045998,342.012001 C297.045998,339.014001 291,330.624001 291,321.132001 C291,309.002001 300.87,299.132001 312.998,299.132001 C325.13,299.132001 335,309.002001 335,321.132001 C335,330.618001 328.958,339.008001 320.098,341.974001 Z" id="Page-1"></path>
        </g>
    </g>
</svg>
