<?xml version="1.0" encoding="UTF-8" standalone="no"?>
<svg width="38px" height="48px" viewBox="0 0 38 48" version="1.1" xmlns="http://www.w3.org/2000/svg" xmlns:xlink="http://www.w3.org/1999/xlink">
    <!-- Generator: Sketch 41.1 (35376) - http://www.bohemiancoding.com/sketch -->
    <title>Page 1</title>
    <desc>Created with Sketch.</desc>
    <defs></defs>
    <g id="Support" stroke="none" stroke-width="1" fill="none" fill-rule="evenodd">
        <g id="Support-Copy-3" transform="translate(-290.000000, -758.000000)">
            <g id="Page-1" transform="translate(291.000000, 759.000000)">
                <path d="M0,16 L20,16 L20,46 L0,46 L0,16 Z M36,46 L20,46 L20,16 L16,16 L16,0 L36,0 L36,46 Z M26,40 L32,40 L32,46 L26,46 L26,40 Z M4,40 L10,40 L10,46 L4,46 L4,40 Z M0,20 L8,20 L0,20 Z M0,24 L6,24 L0,24 Z M16,8 L24,8 L16,8 Z M16,4 L28,4 L16,4 Z M16,12 L22,12 L16,12 Z M0,28 L4,28 L0,28 Z" id="Fill-1" fill-opacity="0" fill="#000000"></path>
                <path d="M0,16 L20,16 L20,46 L0,46 L0,16 Z M36,46 L20,46 L20,16 L16,16 L16,0 L36,0 L36,46 Z M26,40 L32,40 L32,46 L26,46 L26,40 Z M4,40 L10,40 L10,46 L4,46 L4,40 Z M0,20 L15,20 L0,20 Z M0,24 L15,24 L0,24 Z M16,8 L31,8 L16,8 Z M16,4 L31,4 L16,4 Z M16,12 L31,12 L16,12 Z M0,28 L15,28 L0,28 Z" id="Stroke-3" stroke="#5bd5ff" stroke-width="2" stroke-linecap="round" stroke-linejoin="round"></path>
            </g>
        </g>
    </g>
</svg>
