<?xml version="1.0" encoding="UTF-8"?>
<svg width="39px" height="46px" viewBox="0 0 39 46" version="1.1" xmlns="http://www.w3.org/2000/svg" xmlns:xlink="http://www.w3.org/1999/xlink">
    <!-- Generator: Sketch 55.2 (78181) - https://sketchapp.com -->
    <title>icon-stackoverflow</title>
    <desc>Created with Sketch.</desc>
    <g id="Page-1" stroke="none" stroke-width="1" fill="none" fill-rule="evenodd">
        <path d="M30,28 L32,28 L32,41 C32,43.7602847 29.7602847,46 27,46 L5,46 C2.23832853,46 0,43.7608983 0,41 L0,28 L2,28 L2,41 C2,42.6564834 3.34305268,44 5,44 L27,44 C28.6557153,44 30,42.6557153 30,41 L30,28 Z M24,36 C24.5522847,36 25,36.4477153 25,37 C25,37.5522847 24.5522847,38 24,38 L8,38 C7.44771525,38 7,37.5522847 7,37 C7,36.4477153 7.44771525,36 8,36 L24,36 Z M24.9816166,30.6497897 C25.5218672,30.7644532 25.8668737,31.2953659 25.7522103,31.8356166 C25.6375468,32.3758672 25.1066341,32.7208737 24.5663834,32.6062103 L8.91438343,29.2842103 C8.37413281,29.1695468 8.02912625,28.6386341 8.14378972,28.0983834 C8.25845318,27.5581328 8.78936595,27.2131263 9.32961657,27.3277897 L24.9816166,30.6497897 Z M27.0499993,25.6181266 C27.5547177,25.8423539 27.7821006,26.433281 27.5578734,26.9379993 C27.3336461,27.4427177 26.742719,27.6701006 26.2380007,27.4458734 L11.6160027,20.9498734 C11.1112843,20.7256461 10.8839014,20.134719 11.1081286,19.6300007 C11.3323559,19.1252823 11.923283,18.8978994 12.4280013,19.1221266 L27.0499993,25.6181266 Z M30.1207586,21.1242381 C30.5679778,21.4482959 30.6678197,22.0735395 30.3437619,22.5207586 C30.0197041,22.9679778 29.3944605,23.0678197 28.9472414,22.7437619 L15.9912414,13.3557619 C15.5440222,13.0317041 15.4441803,12.4064605 15.7682381,11.9592414 C16.0922959,11.5120222 16.7175395,11.4121803 17.1647586,11.7362381 L30.1207586,21.1242381 Z M34.0540685,17.367676 C34.4242783,17.7775091 34.3921571,18.4098588 33.982324,18.7800685 C33.5724909,19.1502783 32.9401412,19.1181571 32.5699315,18.708324 L21.8439315,6.834324 C21.4737217,6.42449086 21.5058429,5.79214118 21.915676,5.42193145 C22.3255091,5.05172173 22.9578588,5.08384285 23.3280685,5.493676 L34.0540685,17.367676 Z M38.6830095,14.5062445 C38.9601214,14.983976 38.7974871,15.5958976 38.3197555,15.8730095 C37.842024,16.1501214 37.2301024,15.9874871 36.9529905,15.5097555 L28.9249905,1.6697555 C28.6478786,1.19202395 28.8105129,0.580102425 29.2882445,0.302990512 C29.765976,0.0258785991 30.3778976,0.188512948 30.6550095,0.666244496 L38.6830095,14.5062445 Z" id="icon-stackoverflow" fill="#5BD5FF" fill-rule="nonzero"></path>
    </g>
</svg>