<?xml version="1.0" encoding="UTF-8"?>
<svg width="42px" height="42px" viewBox="0 0 42 42" version="1.1" xmlns="http://www.w3.org/2000/svg" xmlns:xlink="http://www.w3.org/1999/xlink">
    <!-- Generator: Sketch 55.2 (78181) - https://sketchapp.com -->
    <title>icon-discourse</title>
    <desc>Created with Sketch.</desc>
    <g id="Page-1" stroke="none" stroke-width="1" fill="none" fill-rule="evenodd">
        <path d="M21.1696428,0 C32.6168975,0 42,9.52027379 42,20.9910714 C42,32.4618691 32.6168975,41.9821428 21.1705286,41.9821425 L0.00937529576,42.0008857 L0.00892867107,41.0004464 L0.00753358121,37.8700043 C0.00613849151,34.7341216 0.00613849151,34.7341216 0.00446438365,30.9569158 L0.0044055784,30.8240352 C0.00164882251,24.5941928 0,20.8032348 0,20.6517857 C0,9.30069702 9.61013639,0 21.1696428,0 Z M21.1696428,39.9821428 C31.5057786,39.9821428 40,31.3637447 40,20.9910714 C40,10.6183982 31.5057786,2 21.1696428,2 C10.7003234,2 2,10.4201793 2,20.6517857 C2,20.8027273 2.00165047,24.5974801 2.00440538,30.8231502 L2.00446419,30.9560306 C2.00613829,34.7332333 2.00613829,34.7332333 2.00753338,37.869114 L2.00848262,39.9991143 L21.1696428,39.9821428 Z M8.22601729,21.3097643 C8.22601729,14.4488056 13.7964841,8.88888889 20.6685642,8.88888889 C27.5406443,8.88888889 33.1111111,14.4488056 33.1111111,21.3097643 C33.1111111,28.170723 27.5406443,33.7306397 20.6685642,33.7306397 C18.9380791,33.7306397 17.2532897,33.3783257 15.7086996,32.7050937 L7.08326187,34.8387922 L9.5268192,26.8510322 C8.67685229,25.1467946 8.22601729,23.2587031 8.22601729,21.3097643 Z M10.0278492,32.0500967 L15.9105722,30.5948712 L16.2321995,30.7466252 C17.5988296,31.391445 19.1094525,31.7306397 20.6685642,31.7306397 C26.4369226,31.7306397 31.1111111,27.0653039 31.1111111,21.3097643 C31.1111111,15.5542247 26.4369226,10.8888889 20.6685642,10.8888889 C14.9002058,10.8888889 10.2260173,15.5542247 10.2260173,21.3097643 C10.2260173,23.0687788 10.6624004,24.7653756 11.481697,26.2757004 L11.6815865,26.6441847 L10.0278492,32.0500967 Z" id="icon-discourse" fill="#5BD5FF" fill-rule="nonzero"></path>
    </g>
</svg>