<?xml version="1.0" encoding="UTF-8"?>
<svg width="48px" height="47px" viewBox="0 0 48 47" version="1.1" xmlns="http://www.w3.org/2000/svg" xmlns:xlink="http://www.w3.org/1999/xlink">
    <!-- Generator: Sketch 55.2 (78181) - https://sketchapp.com -->
    <title>icon-github</title>
    <desc>Created with Sketch.</desc>
    <g id="Page-1" stroke="none" stroke-width="1" fill="none" fill-rule="evenodd">
        <path d="M23.998,0.132001 C10.765998,0.132001 0,10.898001 0,24.132001 C0,34.486001 6.596,43.640001 16.552,46.944001 L17.124,46.996001 C18.37,46.996001 19.242,46.126001 19.242,44.876001 L19.244,44.304001 C19.246,43.552001 19.252,42.328001 19.242,40.876001 C19.24,40.576001 19.104,40.290001 18.866,40.100001 C18.63,39.912001 18.322,39.838001 18.028,39.904001 C17.272,40.068001 16.56,40.150001 15.906,40.150001 C12.352,40.150001 11.508,37.660001 11.45,37.486001 C11.066,36.512001 10.622,35.764001 10.198,35.200001 C10.574,35.594001 10.774,35.944001 10.784,35.960001 C12.238,38.448001 14.264,38.970001 15.71,38.970001 C16.952,38.970001 18.048,38.594001 18.748,38.280001 C19.06,38.140001 19.28,37.848001 19.328,37.508001 C19.48,36.436001 19.89,35.540001 20.456,35.052001 C20.756,34.792001 20.874,34.380001 20.756,34.002001 C20.638,33.624001 20.308,33.348001 19.914,33.302001 C15.172,32.760001 10.324,31.102001 10.324,22.924001 C10.324,20.804001 11.034,18.956001 12.43,17.426001 C12.69,17.140001 12.764,16.730001 12.618,16.374001 C12.41,15.868001 11.838,14.102001 12.636,11.626001 C13.36,11.678001 14.994,12.036001 17.68,13.858001 C17.922,14.022001 18.226,14.072001 18.508,13.992001 C20.21,13.520001 22.11,13.264001 23.994,13.254001 C25.914,13.264001 27.764,13.512001 29.492,13.992001 C29.772,14.072001 30.078,14.022001 30.32,13.858001 C33.004,12.038001 34.632,11.680001 35.36,11.626001 C36.18,14.178001 35.53,16.014001 35.382,16.378001 C35.236,16.738001 35.31,17.148001 35.57,17.432001 C36.966,18.956001 37.674,20.804001 37.674,22.928001 C37.674,31.116001 32.814,32.756001 28.062,33.282001 C27.668,33.326001 27.336,33.598001 27.216,33.980001 C27.098,34.360001 27.216,34.772001 27.516,35.032001 C27.886,35.352001 28.744,36.332001 28.744,38.516001 L28.744,44.884001 C28.744,46.130001 29.614,47 30.86,47 C31.044,47 31.246,46.982 31.6,46.906 C41.41,43.632001 48,34.482001 48,24.132001 C48,10.898001 37.232,0.132001 23.998,0.132001 Z M31.098,44.974001 L30.862,45.000001 L30.746,44.884001 L30.746,38.516001 C30.746,36.981999 30.41,35.848001 29.986,35.026001 C34.556,34.206001 39.674,31.740001 39.674,22.928001 C39.674,20.496001 38.924,18.350001 37.442,16.538001 C37.772,15.400001 38.132,13.132001 37.01,10.302001 C36.9,10.024001 36.67,9.810001 36.386,9.718001 C36.292,9.688001 36.022,9.618001 35.572,9.618001 C34.452,9.618001 32.52,10.030001 29.586,11.948001 C27.816,11.496001 25.942,11.264001 23.998,11.254001 C22.06,11.264001 20.188,11.498001 18.419998,11.948001 C15.485998,10.030001 13.551998,9.618001 12.431998,9.618001 C11.977998,9.618001 11.707998,9.688001 11.613998,9.718001 C11.327998,9.810001 11.097998,10.024001 10.987998,10.304001 C9.869998,13.132001 10.227998,15.400001 10.559998,16.538001 C9.077998,18.354001 8.325998,20.500001 8.325998,22.928001 C8.325998,31.740001 13.445998,34.214001 18.009998,35.048001 C17.767998,35.528001 17.579998,36.068001 17.453998,36.650001 C16.995998,36.814001 16.373998,36.974001 15.711998,36.974001 C14.351998,36.974001 13.305998,36.314001 12.523998,34.978001 C12.463998,34.868001 11.011998,32.290001 8.114,32.094001 C7.05,32.094001 6.348,32.468001 6.138,33.152001 C5.806,34.222001 6.968,35.018001 7.528,35.390001 C7.576,35.414001 8.728,36.028001 9.562,38.142001 C9.61,38.306001 10.823998,42.154001 15.905998,42.154001 C16.337998,42.154001 16.783998,42.126001 17.245998,42.068001 L17.243998,44.298001 L17.123998,44.998001 L17.045998,45.012001 C8.045998,42.014001 2,33.624001 2,24.132001 C2,12.002001 11.87,2.132001 23.998,2.132001 C36.13,2.132001 46,12.002001 46,24.132001 C46,33.618001 39.958,42.008001 31.098,44.974001 Z" id="icon-github" fill="#5BD5FF" fill-rule="nonzero"></path>
    </g>
</svg>