<?xml version="1.0" encoding="UTF-8"?>
<svg width="38px" height="48px" viewBox="0 0 38 48" version="1.1" xmlns="http://www.w3.org/2000/svg" xmlns:xlink="http://www.w3.org/1999/xlink">
    <!-- Generator: Sketch 55.2 (78181) - https://sketchapp.com -->
    <title>icon-enterprise</title>
    <desc>Created with Sketch.</desc>
    <g id="Page-1" stroke="none" stroke-width="1" fill="none" fill-rule="evenodd">
        <path d="M2,30 L2,46 L4,46 L4,41 C4,40.4477153 4.44771525,40 5,40 L11,40 C11.5522847,40 12,40.4477153 12,41 L12,46 L20,46 L20,18 L17,18 L2,18 L2,20 L8.5,20 L16,20 C17.3333333,20 17.3333333,22 16,22 L8.5,22 C7.16666667,22 7.16666667,20 8.5,20 C9.83333333,20 9.83333333,22 8.5,22 L2,22 L2,24 L8.5,24 L16,24 C17.3333333,24 17.3333333,26 16,26 L8.5,26 C7.16666667,26 7.16666667,24 8.5,24 C9.83333333,24 9.83333333,26 8.5,26 L2,26 L2,28 L8.5,28 L16,28 C17.3333333,28 17.3333333,30 16,30 L8.5,30 C7.16666667,30 7.16666667,28 8.5,28 C9.83333333,28 9.83333333,30 8.5,30 L2,30 Z M18,14 L18,16 L21,16 C21.5522847,16 22,16.4477153 22,17 L22,46 L26,46 L26,41 C26,40.4477153 26.4477153,40 27,40 L33,40 C33.5522847,40 34,40.4477153 34,41 L34,46 L36,46 L36,2 L18,2 L18,4 L24.5,4 L32,4 C33.3333333,4 33.3333333,6 32,6 L24.5,6 C23.1666667,6 23.1666667,4 24.5,4 C25.8333333,4 25.8333333,6 24.5,6 L18,6 L18,8 L24.5,8 L32,8 C33.3333333,8 33.3333333,10 32,10 L24.5,10 C23.1666667,10 23.1666667,8 24.5,8 C25.8333333,8 25.8333333,10 24.5,10 L18,10 L18,12 L24.5,12 L32,12 C33.3333333,12 33.3333333,14 32,14 L24.5,14 C23.1666667,14 23.1666667,12 24.5,12 C25.8333333,12 25.8333333,14 24.5,14 L18,14 Z M16,16 L16,1 C16,0.44771525 16.4477153,0 17,0 L37,0 C37.5522847,0 38,0.44771525 38,1 L38,47 C38,47.5522847 37.5522847,48 37,48 L21,48 L1,48 C0.44771525,48 0,47.5522847 0,47 L0,17 C0,16.4477153 0.44771525,16 1,16 L16,16 Z M28,42 L28,46 L32,46 L32,42 L28,42 Z M6,42 L6,46 L10,46 L10,42 L6,42 Z M8.5,26 L8.5,24 L8.5,26 Z M8.5,22 L8.5,20 L8.5,22 Z M24.5,10 L24.5,8 L24.5,10 Z M24.5,6 L24.5,4 L24.5,6 Z M24.5,14 L24.5,12 L24.5,14 Z M8.5,30 L8.5,28 L8.5,30 Z" id="icon-enterprise" fill="#5BD5FF" fill-rule="nonzero"></path>
    </g>
</svg>