<?xml version="1.0" encoding="UTF-8" standalone="no"?>
<svg width="24px" height="24px" viewBox="0 0 24 24" version="1.1" xmlns="http://www.w3.org/2000/svg" xmlns:xlink="http://www.w3.org/1999/xlink">
    <!-- Generator: Sketch 40.2 (33826) - http://www.bohemiancoding.com/sketch -->
    <title>icon getstarted</title>
    <desc>Created with Sketch.</desc>
    <defs></defs>
    <g id="Page-3" stroke="none" stroke-width="1" fill="none" fill-rule="evenodd">
        <g id="Group-14" transform="translate(0.000000, -61.000000)" stroke-width="2" stroke="#FFFFFF">
            <g id="icon-getstarted" transform="translate(1.000000, 62.000000)">
                <g id="Group-9">
                    <path d="M18.77817,3.221825 C23.07394,7.517593 23.07394,14.48241 18.77817,18.77817 C14.48241,23.07394 7.517593,23.07394 3.221825,18.77817 C-1.0739418,14.48241 -1.0739418,7.517593 3.221825,3.221825 C7.517593,-1.0739418 14.48241,-1.0739418 18.77817,3.221825" id="Stroke-3" stroke-linecap="round"></path>
                    <path d="M8,8.5 C8,6.844 9.343,5.5 11,5.5 C12.656,5.5 14,6.844 14,8.5 C14,10.158 12.656,11.5 11,11.5 L11,14.5" id="Stroke-5" stroke-linecap="round"></path>
                    <path d="M11.5,17 C11.5,17.276 11.276,17.5 11,17.5 C10.724,17.5 10.5,17.276 10.5,17 C10.5,16.724 10.724,16.5 11,16.5 C11.276,16.5 11.5,16.724 11.5,17 L11.5,17 Z" id="Stroke-7"></path>
                </g>
            </g>
        </g>
    </g>
</svg>