<?xml version="1.0" encoding="UTF-8"?>
<svg width="36px" height="48px" viewBox="0 0 36 48" version="1.1" xmlns="http://www.w3.org/2000/svg" xmlns:xlink="http://www.w3.org/1999/xlink">
    <!-- Generator: Sketch 55.2 (78181) - https://sketchapp.com -->
    <title>icon-documentation</title>
    <desc>Created with Sketch.</desc>
    <g id="Page-1" stroke="none" stroke-width="1" fill="none" fill-rule="evenodd">
        <path d="M30,8 L32,8 L32,2 L5,2 C3.34351661,2 2,3.34305268 2,5 C2,6.65571525 3.34428475,8 5,8 L28,8 L28,6 L5,6 L5,4 L30,4 L30,8 Z M34,8 L36,8 L36,48 L5,48 C2.23971525,48 0,45.7602847 0,43 L0,5 C0,2.23832853 2.2391017,0 5,0 L34,0 L34,8 Z M2,43 C2,44.6557153 3.34428475,46 5,46 L34,46 L34,10 L5,10 C3.874639,10 2.83580561,9.62772082 2,8.99966263 L2,43 Z" id="icon-documentation" fill="#5BD5FF" fill-rule="nonzero"></path>
    </g>
</svg>