<?xml version="1.0" encoding="UTF-8" standalone="no"?>
<svg width="45px" height="46px" viewBox="0 0 45 46" version="1.1" xmlns="http://www.w3.org/2000/svg" xmlns:xlink="http://www.w3.org/1999/xlink">
    <!-- Generator: Sketch 41.1 (35376) - http://www.bohemiancoding.com/sketch -->
    <title>Stroke 3</title>
    <desc>Created with Sketch.</desc>
    <defs></defs>
    <g id="Support" stroke="none" stroke-width="1" fill="none" fill-rule="evenodd">
        <g id="Support-Copy-3" transform="translate(-288.000000, -516.000000)" stroke="#5bd5ff" stroke-width="2">
            <path d="M323.418624,540.08475 L320.807139,531.505595 L324.391814,530.404855 C326.433393,529.777951 327.582427,527.607477 326.958254,525.556965 C326.33408,523.506454 324.173061,522.352392 322.131482,522.979297 L318.546808,524.080037 L317.228245,519.748342 C316.604071,517.69783 314.443052,516.543769 312.401473,517.170673 C310.359894,517.797577 309.210859,519.968052 309.835033,522.018563 L311.153596,526.350258 L302.460258,529.019706 L301.141695,524.688012 C300.517521,522.6375 298.356502,521.483439 296.314923,522.110343 C294.273344,522.737247 293.12431,524.907721 293.748483,526.958233 L295.067046,531.289927 L291.73637,532.312673 C289.694791,532.939577 288.545756,535.110051 289.16993,537.160562 C289.794103,539.211074 291.955122,540.365135 293.996701,539.738231 L297.327378,538.715486 L299.938863,547.29464 L296.608186,548.317386 C294.566607,548.94429 293.417573,551.114764 294.041746,553.165275 C294.66592,555.215787 296.826939,556.369848 298.868518,555.742944 L302.199194,554.720199 L303.274166,558.251658 C303.89834,560.30217 306.059359,561.456231 308.100938,560.829327 C310.142517,560.202423 311.291552,558.031948 310.667378,555.981437 L309.592406,552.449978 L318.285744,549.780529 L319.360716,553.311988 C319.98489,555.3625 322.145909,556.516561 324.187488,555.889657 C326.229067,555.262753 327.378101,553.092279 326.753928,551.041767 L325.678956,547.510308 L329.26363,546.409568 C331.305209,545.782664 332.454244,543.61219 331.83007,541.561678 C331.205897,539.511167 329.044878,538.357105 327.003299,538.98401 L323.418624,540.08475 Z M316.025412,542.354971 L313.413927,533.775816 L304.720589,536.445265 L307.332074,545.024419 L316.025412,542.354971 Z" id="Stroke-3"></path>
        </g>
    </g>
</svg>
